<svg width="34" height="34" viewBox="0 0 34 34" fill="none" xmlns="http://www.w3.org/2000/svg">
<path fill-rule="evenodd" clip-rule="evenodd" d="M0.333172 17C0.333172 26.2 7.8165 33.6666 16.9998 33.6666L17.4661 33.6602C26.4508 33.413 33.6665 26.044 33.6665 17C33.6665 7.81665 26.1998 0.333313 16.9998 0.333313C7.8165 0.333313 0.333172 7.81665 0.333172 17ZM20.2998 10.3333C20.7832 10.8333 20.7832 11.6166 20.2832 12.1L15.3665 17L20.2832 21.9C20.7832 22.3833 20.7832 23.1833 20.2998 23.6666C19.7998 24.1666 19.0165 24.1666 18.5332 23.6666L12.7165 17.8833C12.4832 17.65 12.3498 17.3333 12.3498 17C12.3498 16.6666 12.4832 16.35 12.7165 16.1166L18.5332 10.3333C18.7665 10.0833 19.0832 9.96665 19.3998 9.96665C19.7332 9.96665 20.0498 10.0833 20.2998 10.3333Z" fill="#141024"/>
</svg>
