<svg width="1420" height="121" viewBox="0 0 1420 121" fill="none" xmlns="http://www.w3.org/2000/svg">
<path d="M0 29.1485C0 34.4183 1.26255 39.3038 3.78766 43.8051C6.42255 48.1966 9.99064 51.7098 14.4919 54.3447C18.9932 56.9796 24.0434 58.297 29.6426 58.297C35.3515 58.297 40.4017 56.9796 44.7932 54.3447C49.2945 51.7098 52.8077 48.1966 55.3328 43.8051C57.8579 39.3038 59.1204 34.4183 59.1204 29.1485C59.1204 23.6591 57.8579 18.7187 55.3328 14.3272C52.8077 9.93574 49.2945 6.47745 44.7932 3.95234C40.4017 1.31745 35.3515 0 29.6426 0C24.0434 0 18.9932 1.31745 14.4919 3.95234C9.99064 6.47745 6.42255 9.93574 3.78766 14.3272C1.26255 18.7187 0 23.6591 0 29.1485ZM17.7855 29.1485C17.7855 26.843 18.2796 24.757 19.2677 22.8906C20.2557 21.0243 21.6281 19.5421 23.3847 18.4443C25.1413 17.2366 27.2272 16.6328 29.6426 16.6328C32.0579 16.6328 34.0889 17.2366 35.7357 18.4443C37.4923 19.5421 38.8647 21.0243 39.8528 22.8906C40.8409 24.757 41.3349 26.843 41.3349 29.1485C41.3349 31.3442 40.8409 33.4302 39.8528 35.4064C38.8647 37.2728 37.4923 38.7549 35.7357 39.8528C34.0889 40.9506 32.0579 41.4996 29.6426 41.4996C27.2272 41.4996 25.1413 40.9506 23.3847 39.8528C21.6281 38.7549 20.2557 37.2728 19.2677 35.4064C18.2796 33.4302 17.7855 31.3442 17.7855 29.1485ZM74.9298 91.3979C74.9298 96.7774 76.1923 101.663 78.7174 106.054C81.3523 110.446 84.9204 113.959 89.4217 116.594C93.923 119.229 98.9732 120.546 104.572 120.546C110.281 120.546 115.331 119.229 119.723 116.594C124.224 113.959 127.737 110.446 130.263 106.054C132.788 101.663 134.05 96.7774 134.05 91.3979C134.05 86.0183 132.788 81.1328 130.263 76.7413C127.737 72.24 124.224 68.7268 119.723 66.2017C115.331 63.5668 110.281 62.2494 104.572 62.2494C98.9732 62.2494 93.923 63.5668 89.4217 66.2017C84.9204 68.7268 81.3523 72.24 78.7174 76.7413C76.1923 81.1328 74.9298 86.0183 74.9298 91.3979ZM92.7153 91.3979C92.7153 89.0923 93.2094 87.0064 94.1975 85.14C95.1855 83.2736 96.5579 81.7915 98.3145 80.6936C100.071 79.5957 102.157 79.0468 104.572 79.0468C106.988 79.0468 109.019 79.5957 110.666 80.6936C112.422 81.7915 113.794 83.2736 114.783 85.14C115.771 87.0064 116.265 89.0923 116.265 91.3979C116.265 93.5936 115.771 95.6796 114.783 97.6558C113.794 99.5221 112.422 101.004 110.666 102.102C109.019 103.2 106.988 103.749 104.572 103.749C102.157 103.749 100.071 103.2 98.3145 102.102C96.5579 101.004 95.1855 99.5221 94.1975 97.6558C93.2094 95.6796 92.7153 93.5936 92.7153 91.3979ZM98.3145 2.63489L14.3272 117.911H35.9004L119.888 2.63489H98.3145Z" fill="white" fill-opacity="0.08"/>
<path d="M142.809 29.1485C142.809 34.4183 144.072 39.3038 146.597 43.8051C149.232 48.1966 152.8 51.7098 157.301 54.3447C161.802 56.9796 166.853 58.297 172.452 58.297C178.161 58.297 183.211 56.9796 187.602 54.3447C192.104 51.7098 195.617 48.1966 198.142 43.8051C200.667 39.3038 201.93 34.4183 201.93 29.1485C201.93 23.6591 200.667 18.7187 198.142 14.3272C195.617 9.93574 192.104 6.47745 187.602 3.95234C183.211 1.31745 178.161 0 172.452 0C166.853 0 161.802 1.31745 157.301 3.95234C152.8 6.47745 149.232 9.93574 146.597 14.3272C144.072 18.7187 142.809 23.6591 142.809 29.1485ZM160.595 29.1485C160.595 26.843 161.089 24.757 162.077 22.8906C163.065 21.0243 164.437 19.5421 166.194 18.4443C167.95 17.2366 170.036 16.6328 172.452 16.6328C174.867 16.6328 176.898 17.2366 178.545 18.4443C180.302 19.5421 181.674 21.0243 182.662 22.8906C183.65 24.757 184.144 26.843 184.144 29.1485C184.144 31.3442 183.65 33.4302 182.662 35.4064C181.674 37.2728 180.302 38.7549 178.545 39.8528C176.898 40.9506 174.867 41.4996 172.452 41.4996C170.036 41.4996 167.95 40.9506 166.194 39.8528C164.437 38.7549 163.065 37.2728 162.077 35.4064C161.089 33.4302 160.595 31.3442 160.595 29.1485ZM217.739 91.3979C217.739 96.7774 219.002 101.663 221.527 106.054C224.162 110.446 227.73 113.959 232.231 116.594C236.732 119.229 241.782 120.546 247.382 120.546C253.09 120.546 258.141 119.229 262.532 116.594C267.033 113.959 270.547 110.446 273.072 106.054C275.597 101.663 276.859 96.7774 276.859 91.3979C276.859 86.0183 275.597 81.1328 273.072 76.7413C270.547 72.24 267.033 68.7268 262.532 66.2017C258.141 63.5668 253.09 62.2494 247.382 62.2494C241.782 62.2494 236.732 63.5668 232.231 66.2017C227.73 68.7268 224.162 72.24 221.527 76.7413C219.002 81.1328 217.739 86.0183 217.739 91.3979ZM235.524 91.3979C235.524 89.0923 236.019 87.0064 237.007 85.14C237.995 83.2736 239.367 81.7915 241.124 80.6936C242.88 79.5957 244.966 79.0468 247.382 79.0468C249.797 79.0468 251.828 79.5957 253.475 80.6936C255.231 81.7915 256.604 83.2736 257.592 85.14C258.58 87.0064 259.074 89.0923 259.074 91.3979C259.074 93.5936 258.58 95.6796 257.592 97.6558C256.604 99.5221 255.231 101.004 253.475 102.102C251.828 103.2 249.797 103.749 247.382 103.749C244.966 103.749 242.88 103.2 241.124 102.102C239.367 101.004 237.995 99.5221 237.007 97.6558C236.019 95.6796 235.524 93.5936 235.524 91.3979ZM241.124 2.63489L157.136 117.911H178.71L262.697 2.63489H241.124Z" fill="white" fill-opacity="0.08"/>
<path d="M285.618 29.1485C285.618 34.4183 286.881 39.3038 289.406 43.8051C292.041 48.1966 295.609 51.7098 300.11 54.3447C304.612 56.9796 309.662 58.297 315.261 58.297C320.97 58.297 326.02 56.9796 330.412 54.3447C334.913 51.7098 338.426 48.1966 340.951 43.8051C343.476 39.3038 344.739 34.4183 344.739 29.1485C344.739 23.6591 343.476 18.7187 340.951 14.3272C338.426 9.93574 334.913 6.47745 330.412 3.95234C326.02 1.31745 320.97 0 315.261 0C309.662 0 304.612 1.31745 300.11 3.95234C295.609 6.47745 292.041 9.93574 289.406 14.3272C286.881 18.7187 285.618 23.6591 285.618 29.1485ZM303.404 29.1485C303.404 26.843 303.898 24.757 304.886 22.8906C305.874 21.0243 307.246 19.5421 309.003 18.4443C310.76 17.2366 312.846 16.6328 315.261 16.6328C317.676 16.6328 319.707 17.2366 321.354 18.4443C323.111 19.5421 324.483 21.0243 325.471 22.8906C326.459 24.757 326.953 26.843 326.953 29.1485C326.953 31.3442 326.459 33.4302 325.471 35.4064C324.483 37.2728 323.111 38.7549 321.354 39.8528C319.707 40.9506 317.676 41.4996 315.261 41.4996C312.846 41.4996 310.76 40.9506 309.003 39.8528C307.246 38.7549 305.874 37.2728 304.886 35.4064C303.898 33.4302 303.404 31.3442 303.404 29.1485ZM360.548 91.3979C360.548 96.7774 361.811 101.663 364.336 106.054C366.971 110.446 370.539 113.959 375.04 116.594C379.541 119.229 384.592 120.546 390.191 120.546C395.9 120.546 400.95 119.229 405.341 116.594C409.843 113.959 413.356 110.446 415.881 106.054C418.406 101.663 419.669 96.7774 419.669 91.3979C419.669 86.0183 418.406 81.1328 415.881 76.7413C413.356 72.24 409.843 68.7268 405.341 66.2017C400.95 63.5668 395.9 62.2494 390.191 62.2494C384.592 62.2494 379.541 63.5668 375.04 66.2017C370.539 68.7268 366.971 72.24 364.336 76.7413C361.811 81.1328 360.548 86.0183 360.548 91.3979ZM378.334 91.3979C378.334 89.0923 378.828 87.0064 379.816 85.14C380.804 83.2736 382.176 81.7915 383.933 80.6936C385.689 79.5957 387.775 79.0468 390.191 79.0468C392.606 79.0468 394.637 79.5957 396.284 80.6936C398.04 81.7915 399.413 83.2736 400.401 85.14C401.389 87.0064 401.883 89.0923 401.883 91.3979C401.883 93.5936 401.389 95.6796 400.401 97.6558C399.413 99.5221 398.04 101.004 396.284 102.102C394.637 103.2 392.606 103.749 390.191 103.749C387.775 103.749 385.689 103.2 383.933 102.102C382.176 101.004 380.804 99.5221 379.816 97.6558C378.828 95.6796 378.334 93.5936 378.334 91.3979ZM383.933 2.63489L299.946 117.911H321.519L405.506 2.63489H383.933Z" fill="white" fill-opacity="0.08"/>
<path d="M428.428 29.1485C428.428 34.4183 429.69 39.3038 432.215 43.8051C434.85 48.1966 438.418 51.7098 442.919 54.3447C447.421 56.9796 452.471 58.297 458.07 58.297C463.779 58.297 468.829 56.9796 473.221 54.3447C477.722 51.7098 481.235 48.1966 483.76 43.8051C486.285 39.3038 487.548 34.4183 487.548 29.1485C487.548 23.6591 486.285 18.7187 483.76 14.3272C481.235 9.93574 477.722 6.47745 473.221 3.95234C468.829 1.31745 463.779 0 458.07 0C452.471 0 447.421 1.31745 442.919 3.95234C438.418 6.47745 434.85 9.93574 432.215 14.3272C429.69 18.7187 428.428 23.6591 428.428 29.1485ZM446.213 29.1485C446.213 26.843 446.707 24.757 447.695 22.8906C448.683 21.0243 450.056 19.5421 451.812 18.4443C453.569 17.2366 455.655 16.6328 458.07 16.6328C460.485 16.6328 462.516 17.2366 464.163 18.4443C465.92 19.5421 467.292 21.0243 468.28 22.8906C469.268 24.757 469.762 26.843 469.762 29.1485C469.762 31.3442 469.268 33.4302 468.28 35.4064C467.292 37.2728 465.92 38.7549 464.163 39.8528C462.516 40.9506 460.485 41.4996 458.07 41.4996C455.655 41.4996 453.569 40.9506 451.812 39.8528C450.056 38.7549 448.683 37.2728 447.695 35.4064C446.707 33.4302 446.213 31.3442 446.213 29.1485ZM503.357 91.3979C503.357 96.7774 504.62 101.663 507.145 106.054C509.78 110.446 513.348 113.959 517.849 116.594C522.351 119.229 527.401 120.546 533 120.546C538.709 120.546 543.759 119.229 548.151 116.594C552.652 113.959 556.165 110.446 558.69 106.054C561.215 101.663 562.478 96.7774 562.478 91.3979C562.478 86.0183 561.215 81.1328 558.69 76.7413C556.165 72.24 552.652 68.7268 548.151 66.2017C543.759 63.5668 538.709 62.2494 533 62.2494C527.401 62.2494 522.351 63.5668 517.849 66.2017C513.348 68.7268 509.78 72.24 507.145 76.7413C504.62 81.1328 503.357 86.0183 503.357 91.3979ZM521.143 91.3979C521.143 89.0923 521.637 87.0064 522.625 85.14C523.613 83.2736 524.985 81.7915 526.742 80.6936C528.499 79.5957 530.585 79.0468 533 79.0468C535.415 79.0468 537.446 79.5957 539.093 80.6936C540.85 81.7915 542.222 83.2736 543.21 85.14C544.198 87.0064 544.692 89.0923 544.692 91.3979C544.692 93.5936 544.198 95.6796 543.21 97.6558C542.222 99.5221 540.85 101.004 539.093 102.102C537.446 103.2 535.415 103.749 533 103.749C530.585 103.749 528.499 103.2 526.742 102.102C524.985 101.004 523.613 99.5221 522.625 97.6558C521.637 95.6796 521.143 93.5936 521.143 91.3979ZM526.742 2.63489L442.755 117.911H464.328L548.315 2.63489H526.742Z" fill="white" fill-opacity="0.08"/>
<path d="M571.237 29.1485C571.237 34.4183 572.499 39.3038 575.024 43.8051C577.659 48.1966 581.227 51.7098 585.729 54.3447C590.23 56.9796 595.28 58.297 600.879 58.297C606.588 58.297 611.638 56.9796 616.03 54.3447C620.531 51.7098 624.044 48.1966 626.569 43.8051C629.095 39.3038 630.357 34.4183 630.357 29.1485C630.357 23.6591 629.095 18.7187 626.569 14.3272C624.044 9.93574 620.531 6.47745 616.03 3.95234C611.638 1.31745 606.588 0 600.879 0C595.28 0 590.23 1.31745 585.729 3.95234C581.227 6.47745 577.659 9.93574 575.024 14.3272C572.499 18.7187 571.237 23.6591 571.237 29.1485ZM589.022 29.1485C589.022 26.843 589.516 24.757 590.504 22.8906C591.492 21.0243 592.865 19.5421 594.621 18.4443C596.378 17.2366 598.464 16.6328 600.879 16.6328C603.295 16.6328 605.326 17.2366 606.972 18.4443C608.729 19.5421 610.101 21.0243 611.089 22.8906C612.078 24.757 612.572 26.843 612.572 29.1485C612.572 31.3442 612.078 33.4302 611.089 35.4064C610.101 37.2728 608.729 38.7549 606.972 39.8528C605.326 40.9506 603.295 41.4996 600.879 41.4996C598.464 41.4996 596.378 40.9506 594.621 39.8528C592.865 38.7549 591.492 37.2728 590.504 35.4064C589.516 33.4302 589.022 31.3442 589.022 29.1485ZM646.167 91.3979C646.167 96.7774 647.429 101.663 649.954 106.054C652.589 110.446 656.157 113.959 660.658 116.594C665.16 119.229 670.21 120.546 675.809 120.546C681.518 120.546 686.568 119.229 690.96 116.594C695.461 113.959 698.974 110.446 701.499 106.054C704.024 101.663 705.287 96.7774 705.287 91.3979C705.287 86.0183 704.024 81.1328 701.499 76.7413C698.974 72.24 695.461 68.7268 690.96 66.2017C686.568 63.5668 681.518 62.2494 675.809 62.2494C670.21 62.2494 665.16 63.5668 660.658 66.2017C656.157 68.7268 652.589 72.24 649.954 76.7413C647.429 81.1328 646.167 86.0183 646.167 91.3979ZM663.952 91.3979C663.952 89.0923 664.446 87.0064 665.434 85.14C666.422 83.2736 667.795 81.7915 669.551 80.6936C671.308 79.5957 673.394 79.0468 675.809 79.0468C678.224 79.0468 680.255 79.5957 681.902 80.6936C683.659 81.7915 685.031 83.2736 686.019 85.14C687.007 87.0064 687.501 89.0923 687.501 91.3979C687.501 93.5936 687.007 95.6796 686.019 97.6558C685.031 99.5221 683.659 101.004 681.902 102.102C680.255 103.2 678.224 103.749 675.809 103.749C673.394 103.749 671.308 103.2 669.551 102.102C667.795 101.004 666.422 99.5221 665.434 97.6558C664.446 95.6796 663.952 93.5936 663.952 91.3979ZM669.551 2.63489L585.564 117.911H607.137L691.124 2.63489H669.551Z" fill="white" fill-opacity="0.08"/>
<path d="M714.046 29.1485C714.046 34.4183 715.308 39.3038 717.834 43.8051C720.468 48.1966 724.037 51.7098 728.538 54.3447C733.039 56.9796 738.089 58.297 743.688 58.297C749.397 58.297 754.448 56.9796 758.839 54.3447C763.34 51.7098 766.854 48.1966 769.379 43.8051C771.904 39.3038 773.166 34.4183 773.166 29.1485C773.166 23.6591 771.904 18.7187 769.379 14.3272C766.854 9.93574 763.34 6.47745 758.839 3.95234C754.448 1.31745 749.397 0 743.688 0C738.089 0 733.039 1.31745 728.538 3.95234C724.037 6.47745 720.468 9.93574 717.834 14.3272C715.308 18.7187 714.046 23.6591 714.046 29.1485ZM731.831 29.1485C731.831 26.843 732.326 24.757 733.314 22.8906C734.302 21.0243 735.674 19.5421 737.431 18.4443C739.187 17.2366 741.273 16.6328 743.688 16.6328C746.104 16.6328 748.135 17.2366 749.782 18.4443C751.538 19.5421 752.911 21.0243 753.899 22.8906C754.887 24.757 755.381 26.843 755.381 29.1485C755.381 31.3442 754.887 33.4302 753.899 35.4064C752.911 37.2728 751.538 38.7549 749.782 39.8528C748.135 40.9506 746.104 41.4996 743.688 41.4996C741.273 41.4996 739.187 40.9506 737.431 39.8528C735.674 38.7549 734.302 37.2728 733.314 35.4064C732.326 33.4302 731.831 31.3442 731.831 29.1485ZM788.976 91.3979C788.976 96.7774 790.238 101.663 792.763 106.054C795.398 110.446 798.966 113.959 803.468 116.594C807.969 119.229 813.019 120.546 818.618 120.546C824.327 120.546 829.377 119.229 833.769 116.594C838.27 113.959 841.783 110.446 844.308 106.054C846.834 101.663 848.096 96.7774 848.096 91.3979C848.096 86.0183 846.834 81.1328 844.308 76.7413C841.783 72.24 838.27 68.7268 833.769 66.2017C829.377 63.5668 824.327 62.2494 818.618 62.2494C813.019 62.2494 807.969 63.5668 803.468 66.2017C798.966 68.7268 795.398 72.24 792.763 76.7413C790.238 81.1328 788.976 86.0183 788.976 91.3979ZM806.761 91.3979C806.761 89.0923 807.255 87.0064 808.243 85.14C809.231 83.2736 810.604 81.7915 812.36 80.6936C814.117 79.5957 816.203 79.0468 818.618 79.0468C821.034 79.0468 823.065 79.5957 824.711 80.6936C826.468 81.7915 827.84 83.2736 828.828 85.14C829.817 87.0064 830.311 89.0923 830.311 91.3979C830.311 93.5936 829.817 95.6796 828.828 97.6558C827.84 99.5221 826.468 101.004 824.711 102.102C823.065 103.2 821.034 103.749 818.618 103.749C816.203 103.749 814.117 103.2 812.36 102.102C810.604 101.004 809.231 99.5221 808.243 97.6558C807.255 95.6796 806.761 93.5936 806.761 91.3979ZM812.36 2.63489L728.373 117.911H749.946L833.934 2.63489H812.36Z" fill="white" fill-opacity="0.08"/>
<path d="M856.855 29.1485C856.855 34.4183 858.118 39.3038 860.643 43.8051C863.278 48.1966 866.846 51.7098 871.347 54.3447C875.848 56.9796 880.898 58.297 886.498 58.297C892.207 58.297 897.257 56.9796 901.648 54.3447C906.15 51.7098 909.663 48.1966 912.188 43.8051C914.713 39.3038 915.975 34.4183 915.975 29.1485C915.975 23.6591 914.713 18.7187 912.188 14.3272C909.663 9.93574 906.15 6.47745 901.648 3.95234C897.257 1.31745 892.207 0 886.498 0C880.898 0 875.848 1.31745 871.347 3.95234C866.846 6.47745 863.278 9.93574 860.643 14.3272C858.118 18.7187 856.855 23.6591 856.855 29.1485ZM874.641 29.1485C874.641 26.843 875.135 24.757 876.123 22.8906C877.111 21.0243 878.483 19.5421 880.24 18.4443C881.996 17.2366 884.082 16.6328 886.498 16.6328C888.913 16.6328 890.944 17.2366 892.591 18.4443C894.347 19.5421 895.72 21.0243 896.708 22.8906C897.696 24.757 898.19 26.843 898.19 29.1485C898.19 31.3442 897.696 33.4302 896.708 35.4064C895.72 37.2728 894.347 38.7549 892.591 39.8528C890.944 40.9506 888.913 41.4996 886.498 41.4996C884.082 41.4996 881.996 40.9506 880.24 39.8528C878.483 38.7549 877.111 37.2728 876.123 35.4064C875.135 33.4302 874.641 31.3442 874.641 29.1485ZM931.785 91.3979C931.785 96.7774 933.047 101.663 935.573 106.054C938.207 110.446 941.776 113.959 946.277 116.594C950.778 119.229 955.828 120.546 961.427 120.546C967.136 120.546 972.187 119.229 976.578 116.594C981.079 113.959 984.593 110.446 987.118 106.054C989.643 101.663 990.905 96.7774 990.905 91.3979C990.905 86.0183 989.643 81.1328 987.118 76.7413C984.593 72.24 981.079 68.7268 976.578 66.2017C972.187 63.5668 967.136 62.2494 961.427 62.2494C955.828 62.2494 950.778 63.5668 946.277 66.2017C941.776 68.7268 938.207 72.24 935.573 76.7413C933.047 81.1328 931.785 86.0183 931.785 91.3979ZM949.57 91.3979C949.57 89.0923 950.064 87.0064 951.052 85.14C952.041 83.2736 953.413 81.7915 955.17 80.6936C956.926 79.5957 959.012 79.0468 961.427 79.0468C963.843 79.0468 965.874 79.5957 967.521 80.6936C969.277 81.7915 970.65 83.2736 971.638 85.14C972.626 87.0064 973.12 89.0923 973.12 91.3979C973.12 93.5936 972.626 95.6796 971.638 97.6558C970.65 99.5221 969.277 101.004 967.521 102.102C965.874 103.2 963.843 103.749 961.427 103.749C959.012 103.749 956.926 103.2 955.17 102.102C953.413 101.004 952.041 99.5221 951.052 97.6558C950.064 95.6796 949.57 93.5936 949.57 91.3979ZM955.17 2.63489L871.182 117.911H892.755L976.743 2.63489H955.17Z" fill="white" fill-opacity="0.08"/>
<path d="M999.664 29.1485C999.664 34.4183 1000.93 39.3038 1003.45 43.8051C1006.09 48.1966 1009.65 51.7098 1014.16 54.3447C1018.66 56.9796 1023.71 58.297 1029.31 58.297C1035.02 58.297 1040.07 56.9796 1044.46 54.3447C1048.96 51.7098 1052.47 48.1966 1055 43.8051C1057.52 39.3038 1058.78 34.4183 1058.78 29.1485C1058.78 23.6591 1057.52 18.7187 1055 14.3272C1052.47 9.93574 1048.96 6.47745 1044.46 3.95234C1040.07 1.31745 1035.02 0 1029.31 0C1023.71 0 1018.66 1.31745 1014.16 3.95234C1009.65 6.47745 1006.09 9.93574 1003.45 14.3272C1000.93 18.7187 999.664 23.6591 999.664 29.1485ZM1017.45 29.1485C1017.45 26.843 1017.94 24.757 1018.93 22.8906C1019.92 21.0243 1021.29 19.5421 1023.05 18.4443C1024.81 17.2366 1026.89 16.6328 1029.31 16.6328C1031.72 16.6328 1033.75 17.2366 1035.4 18.4443C1037.16 19.5421 1038.53 21.0243 1039.52 22.8906C1040.51 24.757 1041 26.843 1041 29.1485C1041 31.3442 1040.51 33.4302 1039.52 35.4064C1038.53 37.2728 1037.16 38.7549 1035.4 39.8528C1033.75 40.9506 1031.72 41.4996 1029.31 41.4996C1026.89 41.4996 1024.81 40.9506 1023.05 39.8528C1021.29 38.7549 1019.92 37.2728 1018.93 35.4064C1017.94 33.4302 1017.45 31.3442 1017.45 29.1485ZM1074.59 91.3979C1074.59 96.7774 1075.86 101.663 1078.38 106.054C1081.02 110.446 1084.58 113.959 1089.09 116.594C1093.59 119.229 1098.64 120.546 1104.24 120.546C1109.95 120.546 1115 119.229 1119.39 116.594C1123.89 113.959 1127.4 110.446 1129.93 106.054C1132.45 101.663 1133.71 96.7774 1133.71 91.3979C1133.71 86.0183 1132.45 81.1328 1129.93 76.7413C1127.4 72.24 1123.89 68.7268 1119.39 66.2017C1115 63.5668 1109.95 62.2494 1104.24 62.2494C1098.64 62.2494 1093.59 63.5668 1089.09 66.2017C1084.58 68.7268 1081.02 72.24 1078.38 76.7413C1075.86 81.1328 1074.59 86.0183 1074.59 91.3979ZM1092.38 91.3979C1092.38 89.0923 1092.87 87.0064 1093.86 85.14C1094.85 83.2736 1096.22 81.7915 1097.98 80.6936C1099.74 79.5957 1101.82 79.0468 1104.24 79.0468C1106.65 79.0468 1108.68 79.5957 1110.33 80.6936C1112.09 81.7915 1113.46 83.2736 1114.45 85.14C1115.43 87.0064 1115.93 89.0923 1115.93 91.3979C1115.93 93.5936 1115.43 95.6796 1114.45 97.6558C1113.46 99.5221 1112.09 101.004 1110.33 102.102C1108.68 103.2 1106.65 103.749 1104.24 103.749C1101.82 103.749 1099.74 103.2 1097.98 102.102C1096.22 101.004 1094.85 99.5221 1093.86 97.6558C1092.87 95.6796 1092.38 93.5936 1092.38 91.3979ZM1097.98 2.63489L1013.99 117.911H1035.56L1119.55 2.63489H1097.98Z" fill="white" fill-opacity="0.08"/>
<path d="M1142.47 29.1485C1142.47 34.4183 1143.74 39.3038 1146.26 43.8051C1148.9 48.1966 1152.46 51.7098 1156.97 54.3447C1161.47 56.9796 1166.52 58.297 1172.12 58.297C1177.82 58.297 1182.88 56.9796 1187.27 54.3447C1191.77 51.7098 1195.28 48.1966 1197.81 43.8051C1200.33 39.3038 1201.59 34.4183 1201.59 29.1485C1201.59 23.6591 1200.33 18.7187 1197.81 14.3272C1195.28 9.93574 1191.77 6.47745 1187.27 3.95234C1182.88 1.31745 1177.82 0 1172.12 0C1166.52 0 1161.47 1.31745 1156.97 3.95234C1152.46 6.47745 1148.9 9.93574 1146.26 14.3272C1143.74 18.7187 1142.47 23.6591 1142.47 29.1485ZM1160.26 29.1485C1160.26 26.843 1160.75 24.757 1161.74 22.8906C1162.73 21.0243 1164.1 19.5421 1165.86 18.4443C1167.61 17.2366 1169.7 16.6328 1172.12 16.6328C1174.53 16.6328 1176.56 17.2366 1178.21 18.4443C1179.97 19.5421 1181.34 21.0243 1182.33 22.8906C1183.31 24.757 1183.81 26.843 1183.81 29.1485C1183.81 31.3442 1183.31 33.4302 1182.33 35.4064C1181.34 37.2728 1179.97 38.7549 1178.21 39.8528C1176.56 40.9506 1174.53 41.4996 1172.12 41.4996C1169.7 41.4996 1167.61 40.9506 1165.86 39.8528C1164.1 38.7549 1162.73 37.2728 1161.74 35.4064C1160.75 33.4302 1160.26 31.3442 1160.26 29.1485ZM1217.4 91.3979C1217.4 96.7774 1218.67 101.663 1221.19 106.054C1223.83 110.446 1227.39 113.959 1231.9 116.594C1236.4 119.229 1241.45 120.546 1247.05 120.546C1252.75 120.546 1257.8 119.229 1262.2 116.594C1266.7 113.959 1270.21 110.446 1272.74 106.054C1275.26 101.663 1276.52 96.7774 1276.52 91.3979C1276.52 86.0183 1275.26 81.1328 1272.74 76.7413C1270.21 72.24 1266.7 68.7268 1262.2 66.2017C1257.8 63.5668 1252.75 62.2494 1247.05 62.2494C1241.45 62.2494 1236.4 63.5668 1231.9 66.2017C1227.39 68.7268 1223.83 72.24 1221.19 76.7413C1218.67 81.1328 1217.4 86.0183 1217.4 91.3979ZM1235.19 91.3979C1235.19 89.0923 1235.68 87.0064 1236.67 85.14C1237.66 83.2736 1239.03 81.7915 1240.79 80.6936C1242.54 79.5957 1244.63 79.0468 1247.05 79.0468C1249.46 79.0468 1251.49 79.5957 1253.14 80.6936C1254.9 81.7915 1256.27 83.2736 1257.26 85.14C1258.24 87.0064 1258.74 89.0923 1258.74 91.3979C1258.74 93.5936 1258.24 95.6796 1257.26 97.6558C1256.27 99.5221 1254.9 101.004 1253.14 102.102C1251.49 103.2 1249.46 103.749 1247.05 103.749C1244.63 103.749 1242.54 103.2 1240.79 102.102C1239.03 101.004 1237.66 99.5221 1236.67 97.6558C1235.68 95.6796 1235.19 93.5936 1235.19 91.3979ZM1240.79 2.63489L1156.8 117.911H1178.37L1262.36 2.63489H1240.79Z" fill="white" fill-opacity="0.08"/>
<path d="M1285.28 29.1485C1285.28 34.4183 1286.55 39.3038 1289.07 43.8051C1291.71 48.1966 1295.27 51.7098 1299.77 54.3447C1304.28 56.9796 1309.33 58.297 1314.93 58.297C1320.63 58.297 1325.68 56.9796 1330.08 54.3447C1334.58 51.7098 1338.09 48.1966 1340.62 43.8051C1343.14 39.3038 1344.4 34.4183 1344.4 29.1485C1344.4 23.6591 1343.14 18.7187 1340.62 14.3272C1338.09 9.93574 1334.58 6.47745 1330.08 3.95234C1325.68 1.31745 1320.63 0 1314.93 0C1309.33 0 1304.28 1.31745 1299.77 3.95234C1295.27 6.47745 1291.71 9.93574 1289.07 14.3272C1286.55 18.7187 1285.28 23.6591 1285.28 29.1485ZM1303.07 29.1485C1303.07 26.843 1303.56 24.757 1304.55 22.8906C1305.54 21.0243 1306.91 19.5421 1308.67 18.4443C1310.42 17.2366 1312.51 16.6328 1314.93 16.6328C1317.34 16.6328 1319.37 17.2366 1321.02 18.4443C1322.77 19.5421 1324.15 21.0243 1325.14 22.8906C1326.12 24.757 1326.62 26.843 1326.62 29.1485C1326.62 31.3442 1326.12 33.4302 1325.14 35.4064C1324.15 37.2728 1322.77 38.7549 1321.02 39.8528C1319.37 40.9506 1317.34 41.4996 1314.93 41.4996C1312.51 41.4996 1310.42 40.9506 1308.67 39.8528C1306.91 38.7549 1305.54 37.2728 1304.55 35.4064C1303.56 33.4302 1303.07 31.3442 1303.07 29.1485ZM1360.21 91.3979C1360.21 96.7774 1361.47 101.663 1364 106.054C1366.63 110.446 1370.2 113.959 1374.7 116.594C1379.21 119.229 1384.26 120.546 1389.85 120.546C1395.56 120.546 1400.61 119.229 1405.01 116.594C1409.51 113.959 1413.02 110.446 1415.55 106.054C1418.07 101.663 1419.33 96.7774 1419.33 91.3979C1419.33 86.0183 1418.07 81.1328 1415.55 76.7413C1413.02 72.24 1409.51 68.7268 1405.01 66.2017C1400.61 63.5668 1395.56 62.2494 1389.85 62.2494C1384.26 62.2494 1379.21 63.5668 1374.7 66.2017C1370.2 68.7268 1366.63 72.24 1364 76.7413C1361.47 81.1328 1360.21 86.0183 1360.21 91.3979ZM1378 91.3979C1378 89.0923 1378.49 87.0064 1379.48 85.14C1380.47 83.2736 1381.84 81.7915 1383.6 80.6936C1385.35 79.5957 1387.44 79.0468 1389.85 79.0468C1392.27 79.0468 1394.3 79.5957 1395.95 80.6936C1397.7 81.7915 1399.08 83.2736 1400.07 85.14C1401.05 87.0064 1401.55 89.0923 1401.55 91.3979C1401.55 93.5936 1401.05 95.6796 1400.07 97.6558C1399.08 99.5221 1397.7 101.004 1395.95 102.102C1394.3 103.2 1392.27 103.749 1389.85 103.749C1387.44 103.749 1385.35 103.2 1383.6 102.102C1381.84 101.004 1380.47 99.5221 1379.48 97.6558C1378.49 95.6796 1378 93.5936 1378 91.3979ZM1383.6 2.63489L1299.61 117.911H1321.18L1405.17 2.63489H1383.6Z" fill="white" fill-opacity="0.08"/>
</svg>
